
<svg width="22" height="30" viewBox="0 0 22 30" fill="none" xmlns="http://www.w3.org/2000/svg">
<path d="M9.65078 28.1328L19.1348 20.2862C21.5355 18.3 21.8715 14.7437 19.8853 12.343C19.533 11.9172 19.1313 11.5563 18.6954 11.2618L10.0584 18.4076C8.08354 20.0415 5.32667 20.104 3.30511 18.7383L2.45806 19.4391C0.0573582 21.4253 -0.278645 24.9816 1.70757 27.3823C3.69379 29.783 7.25009 30.119 9.65078 28.1328Z" fill="#4F46E5"/>
<path d="M12.349 1.86729L2.86534 9.71438C0.464741 11.7007 0.128914 15.257 2.11525 17.6576C2.46758 18.0834 2.8692 18.4439 3.30511 18.7383L11.9418 11.5925C13.9166 9.9585 16.6738 9.89626 18.6954 11.2618L19.5421 10.5606C21.9427 8.57429 22.2786 5.01798 20.2922 2.61738C18.3059 0.216784 14.7496 -0.119042 12.349 1.86729Z" fill="#4F46E5"/>
</svg>

